<svg width="1600" height="900" viewBox="0 0 1600 900" fill="none" xmlns="http://www.w3.org/2000/svg">
  <defs>
    <radialGradient id="bgGlowA" cx="0" cy="0" r="1" gradientUnits="userSpaceOnUse" gradientTransform="translate(408 230) rotate(44.5) scale(517 455)">
      <stop stop-color="#10B981" stop-opacity="0.32"/>
      <stop offset="1" stop-color="#10B981" stop-opacity="0"/>
    </radialGradient>
    <radialGradient id="bgGlowB" cx="0" cy="0" r="1" gradientUnits="userSpaceOnUse" gradientTransform="translate(1166 596) rotate(150) scale(496 382)">
      <stop stop-color="#818CF8" stop-opacity="0.26"/>
      <stop offset="1" stop-color="#818CF8" stop-opacity="0"/>
    </radialGradient>
    <filter id="shadow" x="-20%" y="-20%" width="140%" height="150%" color-interpolation-filters="sRGB">
      <feDropShadow dx="0" dy="26" stdDeviation="38" flood-color="#000000" flood-opacity="0.42"/>
    </filter>
  </defs>

  <rect width="1600" height="900" fill="#0A0A0F"/>
  <rect width="1600" height="900" fill="url(#bgGlowA)"/>
  <rect width="1600" height="900" fill="url(#bgGlowB)"/>
  <path d="M0 760C225 698 354 728 547 765C768 807 946 814 1118 757C1288 700 1408 620 1600 646V900H0V760Z" fill="#1A1A2E" fill-opacity="0.56"/>
  <g opacity="0.38">
    <path d="M180 216H1420M180 684H1420M296 110V790M1304 110V790" stroke="#3A3A55" stroke-width="2"/>
    <path d="M180 450H1420" stroke="#10B981" stroke-opacity="0.25" stroke-width="2"/>
    <circle cx="800" cy="450" r="252" stroke="#3A3A55" stroke-width="2"/>
  </g>

  <rect x="230" y="172" width="1140" height="556" rx="34" fill="#111827" fill-opacity="0.78" stroke="#3A3A55" stroke-width="2" filter="url(#shadow)"/>
  <rect x="254" y="196" width="1092" height="508" rx="24" fill="#0F172A" stroke="rgba(16,185,129,0.22)" stroke-width="1.5"/>
  <image href="tanqiu-logo.svg" x="390" y="315" width="820" height="270" preserveAspectRatio="xMidYMid meet"/>
  <text x="800" y="648" text-anchor="middle" fill="#B0B7C3" font-family="'PingFang SC','Microsoft YaHei','Noto Sans SC',Arial,sans-serif" font-size="30" font-weight="600" letter-spacing="2">为 2026 世界杯而生的 AI 足球情报平台</text>
</svg>
